<svg width="32" height="31" viewBox="0 0 32 31" fill="none" xmlns="http://www.w3.org/2000/svg">
<path d="M13.1016 3.41594C13.1016 1.53266 14.6342 0 16.5175 0C18.4008 0 19.9334 1.53266 19.9334 3.41594C19.9334 5.29922 18.4008 6.83187 16.5175 6.83187C14.6342 6.83187 13.1016 5.30187 13.1016 3.41594ZM15.0884 3.41594C15.0884 4.20484 15.7286 4.845 16.5175 4.845C17.3064 4.845 17.9466 4.20484 17.9466 3.41594C17.9466 2.62703 17.3064 1.98688 16.5175 1.98688C15.7286 1.98688 15.0884 2.62969 15.0884 3.41594Z" fill="#E2A610"/>
<path d="M19.4553 1.68359C19.4553 1.68359 19.6067 2.28656 18.9081 2.61594C18.2095 2.94266 17.7473 2.70094 17.7473 2.70094C17.8722 2.91344 17.9466 3.15516 17.9466 3.41812C17.9466 4.20703 17.3064 4.84719 16.5175 4.84719C15.7286 4.84719 15.0884 4.20703 15.0884 3.41812C15.0884 3.33844 15.107 3.03828 15.2345 2.78859C14.0498 3.35172 13.1494 2.87094 13.1494 2.87094C13.1202 3.04891 13.1016 3.23219 13.1016 3.41812C13.1016 5.30141 14.6342 6.83406 16.5175 6.83406C18.4008 6.83406 19.9334 5.30141 19.9334 3.41547C19.9334 2.78328 19.7581 2.19094 19.4553 1.68359Z" fill="#9E740B"/>
<path d="M1.71595 24.4004C3.51423 22.634 4.63517 22.039 5.09204 19.4784C5.54892 16.9177 5.18236 11.5229 7.19579 7.99008C9.03392 4.75477 12.4074 3.41602 15.6985 3.41602C15.7781 3.41602 15.8578 3.42133 15.9375 3.42133C16.0172 3.41867 16.0969 3.41602 16.1766 3.41602C19.4677 3.41602 22.8411 4.75477 24.6792 7.98742C26.69 11.5229 26.3261 16.9177 26.783 19.4757C27.2399 22.0363 28.3608 22.6313 30.1591 24.3977C30.9347 25.1601 31.8724 26.374 31.875 27.1549C31.8777 27.9359 31.4792 28.2201 30.531 28.6185C27.8481 29.7474 24.2622 30.8418 15.9375 30.8418C7.61283 30.8418 4.02689 29.7474 1.34408 28.6185C0.395795 28.2201 -0.00264306 27.9385 1.31879e-05 27.1549C0.00266944 26.3766 0.940326 25.1627 1.71595 24.4004Z" fill="#FFCA28"/>
<path d="M29.1395 27.2104C29.1395 26.0337 23.2293 25.0801 15.9379 25.0801C8.64648 25.0801 2.73633 26.0337 2.73633 27.2104C2.73633 28.3871 8.64648 29.7923 15.9379 29.7923C23.2293 29.7923 29.1395 28.3871 29.1395 27.2104Z" fill="#4E342E"/>
<path d="M23.8633 10.3205C23.9616 10.695 24.0439 11.0695 24.1103 11.4361C24.4477 13.3114 24.3866 15.2345 24.538 17.1338C24.7425 19.6758 25.1941 21.0145 26.2221 22.2098C26.3575 22.3666 26.2194 22.6083 26.0149 22.5764C24.6416 22.3666 23.5392 22.1567 22.2828 21.328C20.4075 20.0928 19.9453 17.7686 19.9321 15.6808C19.9108 12.573 19.9692 9.56344 19.7222 8.42125C19.3796 6.83016 19.0608 5.98282 18.5402 5.20985C17.746 4.03047 20.8299 5.66672 21.3133 6.03063C22.66 7.04797 23.433 8.68422 23.8633 10.3205Z" fill="#E2A610"/>
<path d="M7.14229 14.4452C7.11041 12.4317 7.12635 10.3492 7.92854 8.50046C8.40932 7.39546 9.22479 6.39937 10.266 5.78047C11.0842 5.29437 12.747 4.75781 13.3446 5.86015C13.4642 6.08062 13.512 6.33828 13.5199 6.59062C13.5412 7.46984 13.0843 8.28265 12.6407 9.04234C11.3285 11.2948 10.8053 13.7572 10.112 16.2541C9.82776 17.2847 9.46651 18.3127 8.8476 19.1839C8.4226 19.7816 6.05588 21.9066 6.59776 19.9861C7.11838 18.1294 7.17151 16.3789 7.14229 14.4452Z" fill="#FFF59D"/>
<path d="M18.3529 26.7968C18.3503 26.3399 18.1033 26.0769 17.5348 25.8804C16.3554 25.474 14.8786 25.5483 14.0179 26.0105C13.1148 26.494 13.7417 29.1741 15.9384 29.1741C18.1351 29.1741 18.3556 27.1447 18.3529 26.7968Z" fill="#E2A610"/>
<path d="M7.76971 22.8046C5.43752 23.2136 3.74815 24.0982 3.01768 24.8154C2.43862 25.3811 2.43862 25.8274 3.45862 25.3626C4.22627 25.0119 6.68596 24.3001 8.84018 24.0849C12.5403 23.713 14.8247 23.7051 15.2046 23.713C16.0944 23.7316 16.1688 23.0463 14.3705 22.8046C12.5722 22.5655 10.1019 22.3982 7.76971 22.8046Z" fill="#FFF59D"/>
<path d="M14.9978 28.6563C15.306 28.8688 15.715 28.9724 16.0603 28.8289C16.4056 28.6855 16.6288 28.2472 16.4588 27.9152C16.3924 27.785 16.2781 27.6868 16.1639 27.5964C15.8478 27.3494 15.4972 27.1475 15.1253 26.9988C14.9792 26.9403 14.8252 26.8872 14.6658 26.8978C14.5091 26.9058 14.3444 26.9882 14.2833 27.1343C14.0203 27.7319 14.5463 28.3482 14.9978 28.6563Z" fill="#FFF59D"/>
</svg>
