<svg width="36" height="36" viewBox="0 0 36 36" fill="none" xmlns="http://www.w3.org/2000/svg">
<path d="M6.87 12.9112L3 12.6817C5.7735 5.55667 13.737 1.50067 21.4995 3.51667C29.769 5.66617 34.6815 13.8937 32.4705 21.8917C30.642 28.5082 24.5145 32.8972 17.7705 33.0007" stroke="#1C1C3A" stroke-width="1.5" stroke-linecap="round" stroke-linejoin="round"/>
<path d="M18 33C9.75 33 3 25.5 3 16.5" stroke="#1C1C3A" stroke-width="1.5" stroke-linecap="round" stroke-linejoin="round" stroke-dasharray="0.5 3"/>
<path d="M20.4062 14.5842C19.8782 14.0292 18.5867 12.7287 16.5437 13.6542C14.5022 14.5767 14.1782 17.5482 17.2667 17.8647C18.6617 18.0072 19.5722 17.6997 20.4062 18.5697C21.2402 19.4427 21.3947 21.8667 19.2647 22.5207C17.1347 23.1747 15.7532 22.0947 15.3827 21.7572M17.8622 12.0312V13.2162M17.8622 22.7217V24.0312" stroke="#1C1C3A" stroke-width="1.5" stroke-linecap="round" stroke-linejoin="round"/>
</svg>
