<svg width="34" height="39" viewBox="0 0 34 39" fill="none" xmlns="http://www.w3.org/2000/svg">
<path d="M1.00195 21.8548L5.34227 16.9494L12.732 15.4473L12.0015 19.8835L2.01133 23.4057L1.36586 23.0858L1.00195 21.8548Z" fill="#CA2C31"/>
<path d="M6.09305 18.2088L1.38086 23.1204L4.84727 25.0582L10.1093 21.9778V20.5245L11.1851 17.1973L6.09305 18.2088Z" fill="#A02422"/>
<path d="M17.2437 26.8591L14.9673 27.9925L12.8184 33.2179C12.8184 33.2179 14.7096 38.0228 14.7946 38.0228C14.8796 38.0228 15.9554 38.1203 15.9554 38.1203L19.7804 33.2148L20.7473 24.8359L17.2437 26.8591Z" fill="#A02422"/>
<path d="M15.0083 30.7252C15.0083 30.7252 16.2753 30.4296 17.1784 29.936C18.0816 29.4424 19.1972 28.7051 19.1972 28.7051L18.7881 32.797L14.7905 38.0163C14.7905 38.0163 14.6338 37.7939 13.9697 36.1364C13.4411 34.8141 13.2578 34.3418 13.2578 34.3418L15.0083 30.7252Z" fill="#CA2C31"/>
<path d="M8.38836 24.5759C8.38836 24.5759 6.86367 24.4297 5.19289 26.8519C3.66821 29.064 2.95368 32.6654 2.67743 33.5916C2.40118 34.5179 1.73977 34.7068 1.96024 35.1303C2.18071 35.5538 3.1343 35.5294 4.31102 35.3619C5.48774 35.1943 6.49711 34.7708 6.49711 34.7708C6.49711 34.7708 6.44664 34.917 6.27664 35.2339C6.21555 35.3466 6.00305 35.5081 6.01899 35.6757C6.05617 36.0748 9.03649 36.084 11.4165 33.2747C13.9877 30.2431 12.7393 27.7569 12.7393 27.7569L8.38836 24.5759Z" fill="#F7D74D"/>
<path d="M8.84778 25.9863C8.84778 25.9863 7.20356 26.0869 5.84356 28.5091C4.48356 30.9314 3.85138 33.7376 3.98153 33.9265C4.10903 34.1154 6.64309 33.0642 7.25137 33.2745C7.66841 33.4207 7.45325 33.9052 7.56481 34.0331C7.65778 34.1398 8.75747 34.3195 10.5372 32.1075C12.3195 29.8955 11.8972 26.7877 11.8972 26.7877L8.84778 25.9863Z" fill="#FBF0B4"/>
<path d="M9.65586 22.6816C9.65586 22.6816 8.82976 23.5256 8.53492 24.0101C8.24007 24.4945 8.24007 24.5372 8.25867 24.6834C8.27726 24.8297 8.58273 26.4354 9.85507 27.843C11.4169 29.5706 12.8115 29.8022 13.0134 29.8022C13.2152 29.8022 14.5566 28.0746 14.5566 28.0746L9.65586 22.6816Z" fill="#858585"/>
<path d="M13.3086 27.8001C13.3086 27.8001 14.6473 28.8086 16.8919 27.9433C19.9598 26.7611 22.2097 24.1164 24.9961 20.777C27.6842 17.5534 29.9394 13.5529 29.9394 13.5529L28.3589 7.48047L13.3086 27.8001Z" fill="#437687"/>
<path d="M18.0605 24.4764L18.4298 23.1602L19.3541 23.3095C19.3541 23.3095 20.058 23.6903 20.576 23.9676C21.094 24.2448 21.7607 24.4551 21.7607 24.4551L20.4459 25.7287C20.4459 25.7287 19.7287 25.4179 19.2054 25.1559C18.6157 24.8603 18.0605 24.4764 18.0605 24.4764Z" fill="#3F545F"/>
<path d="M22.3967 4.91797C22.3967 4.91797 19.8414 6.61813 16.1784 10.5943C12.8767 14.1774 10.4303 17.4193 9.83796 20.1767C9.34389 22.4863 9.60686 23.8878 10.7305 25.4021C11.9178 27.0048 13.3097 27.8 13.3097 27.8C13.3097 27.8 14.3562 27.8183 18.7231 23.964C24.1711 19.153 28.5353 11.097 28.5353 11.097L22.3967 4.91797Z" fill="#8DAFBF"/>
<path d="M27.6719 12.7477C27.6719 12.7477 25.4486 11.6599 23.8628 9.12188C22.2876 6.60211 22.4125 4.89891 22.4125 4.89891C22.4125 4.89891 23.73 3.71368 26.6917 2.35782C28.6839 1.4468 31.3959 0.980629 32.2884 1.7393C33.1809 2.49797 31.6775 6.30352 31.6775 6.30352L28.9389 12.3851L27.6719 12.7477Z" fill="#D83F22"/>
<path d="M18.1072 24.4964C18.1072 24.4964 16.1867 23.3721 14.9648 21.7725C12.6539 18.753 12.1758 15.438 12.1758 15.438L13.3366 13.875C13.3366 13.875 13.6261 17.3972 16.1044 20.441C17.7194 22.4245 19.4061 23.3325 19.4061 23.3325C19.4061 23.3325 19.0687 23.6585 18.7075 23.9754C18.4764 24.1795 18.1072 24.4964 18.1072 24.4964Z" fill="#6896A5"/>
<path d="M29.9377 13.552C29.9377 13.552 31.0905 11.9585 32.1822 8.36625C33.7069 3.35719 32.3787 1.83984 32.3787 1.83984C32.3787 1.83984 31.9298 4.2225 30.3706 7.53445C29.1195 10.1883 27.6055 12.7141 27.6055 12.7141C27.6055 12.7141 28.4395 13.1438 28.8911 13.293C29.4595 13.482 29.9377 13.552 29.9377 13.552Z" fill="#A02422"/>
<path d="M10.5748 21.2237C10.9201 21.6015 11.4434 21.2054 11.786 20.2791C12.1313 19.3529 12.126 18.8349 11.8604 18.6156C11.531 18.3413 10.9785 18.9416 10.7368 19.4748C10.4712 20.0659 10.3145 20.9373 10.5748 21.2237Z" fill="#B3E1EE"/>
<path d="M22.5644 6.13281C22.5644 6.13281 20.543 7.79945 18.3861 10.0663C16.4072 12.1473 15.095 13.7744 14.9144 14.1522C14.7231 14.5574 14.7205 15.1302 14.8692 15.4227C15.018 15.7152 15.3474 15.8676 15.6475 15.6116C15.9477 15.3527 18.0859 12.6409 20.017 10.7031C21.7834 8.92984 23.1461 7.80555 23.1461 7.80555C23.1461 7.80555 23.6986 6.6843 23.6083 6.42836C23.518 6.16938 22.5644 6.13281 22.5644 6.13281Z" fill="#B3E1EE"/>
<path d="M22.5645 6.13365C22.5645 6.13365 24.0573 4.82044 25.6829 3.89724C27.1943 3.03802 28.6977 2.32201 28.9687 2.94357C29.2263 3.53466 27.5423 4.33904 26.0601 5.42372C24.5779 6.50841 23.1515 7.80333 23.1515 7.80333C23.1515 7.80333 22.9337 7.3463 22.7929 6.92279C22.6362 6.46271 22.5645 6.13365 22.5645 6.13365Z" fill="#ED6A65"/>
<path d="M23.798 11.9587C22.3185 10.3956 20.2599 10.8161 19.2452 12.2055C18.2039 13.6375 18.281 15.8251 19.5108 17.1414C20.6291 18.3358 22.7089 18.6069 23.9627 16.9312C25.0783 15.4443 25.0092 13.2353 23.798 11.9587Z" fill="#E1E1E1"/>
<path d="M20.0086 12.7573C19.1294 13.7476 19.1772 15.7098 20.2237 16.6055C21.1375 17.3886 22.4337 17.349 23.2466 16.3953C24.0594 15.4416 24.0594 13.708 23.297 12.8122C22.4205 11.7854 21.0153 11.6239 20.0086 12.7573Z" fill="#3F545F"/>
<path d="M13.2822 23.427C13.2822 23.427 14.9264 21.5136 15.107 21.7208C15.2877 21.928 15.2638 23.0888 14.4775 24.3807C13.6886 25.6726 11.9541 27.973 10.5808 29.5238C9.2261 31.0503 7.31625 32.7962 7.13563 32.7657C6.99485 32.7413 6.42375 32.4153 6.19532 32.0984C5.97219 31.7846 6.63891 30.3008 6.90719 29.8102C7.17813 29.3197 13.2822 23.427 13.2822 23.427Z" fill="#A02524"/>
<path d="M5.63924 31.0332C5.61799 31.472 6.20236 32.1118 6.20236 32.1118L15.1061 21.725C15.1061 21.725 14.6891 21.1857 13.4619 22.0602C12.2241 22.9438 11.1403 24.0041 9.54127 25.7804C7.31267 28.2606 5.66049 30.5945 5.63924 31.0332Z" fill="#CA2C31"/>
<path d="M5.06331 11.2576C4.76847 11.5958 4.75519 12.1382 5.08456 12.449C5.37675 12.7262 5.85222 12.5465 6.03019 12.2966C6.20815 12.0468 6.1869 11.5044 5.9505 11.2363C5.71409 10.9651 5.24394 11.0535 5.06331 11.2576Z" fill="white"/>
<path opacity="0.5" d="M10.8967 10.8614C10.6736 11.1447 10.7453 11.5652 10.9525 11.7206C11.1597 11.876 11.4705 11.8608 11.6219 11.6475C11.7573 11.4555 11.7733 11.0716 11.5661 10.834C11.3855 10.6298 11.0402 10.6786 10.8967 10.8614Z" fill="white"/>
<path d="M14.7545 3.62338C14.7545 3.62338 15.0786 2.56307 15.2698 2.55088C15.4638 2.5387 15.7427 3.6112 15.7427 3.6112C15.7427 3.6112 16.7016 3.62338 16.7653 3.78487C16.8477 3.99206 16.1517 4.68674 16.1517 4.68674C16.1517 4.68674 16.3775 5.72268 16.2713 5.8476C16.1517 5.98471 15.3256 5.43932 15.3256 5.43932C15.3256 5.43932 14.4756 6.11878 14.2923 5.93292C14.133 5.77143 14.465 4.67456 14.465 4.67456C14.465 4.67456 13.6681 4.00729 13.7106 3.82143C13.7717 3.5594 14.7545 3.62338 14.7545 3.62338Z" fill="white"/>
<path d="M25.768 29.0451C26.0894 29.2493 26.4931 29.1335 26.6419 28.7404C26.7773 28.39 26.5277 27.9726 26.3019 27.8599C26.0761 27.7472 25.6803 27.8964 25.5369 28.192C25.3961 28.4845 25.5741 28.9232 25.768 29.0451Z" fill="white"/>
<path d="M30.3313 20.06C30.148 19.734 29.7522 19.6274 29.4946 19.8894C29.2449 20.1454 29.306 20.5475 29.4468 20.7517C29.5876 20.9558 29.9647 21.032 30.1932 20.8644C30.4216 20.6968 30.4429 20.255 30.3313 20.06Z" fill="white"/>
</svg>
