<svg width="36" height="36" viewBox="0 0 36 36" fill="none" xmlns="http://www.w3.org/2000/svg">
<path fill-rule="evenodd" clip-rule="evenodd" d="M13.2896 20.6018C14.1596 19.6868 15.0146 18.8153 15.8111 18.1253C16.4186 18.2888 17.0441 18.3803 17.6711 18.3953C17.7283 18.3996 17.7859 18.3925 17.8404 18.3744C17.8949 18.3563 17.9453 18.3277 17.9887 18.29C18.0321 18.2524 18.0675 18.2065 18.0931 18.155C18.1186 18.1036 18.1338 18.0476 18.1376 17.9903C18.1416 17.9339 18.1343 17.8773 18.1159 17.8238C18.0976 17.7704 18.0686 17.7211 18.0308 17.6791C17.993 17.6371 17.9471 17.6031 17.8959 17.5793C17.8446 17.5554 17.7891 17.5422 17.7326 17.5403C14.3561 17.2253 12.7796 15.1373 12.7346 12.9473C13.1996 13.1933 13.7096 13.3463 14.2346 13.3973C14.4806 13.4343 14.7256 13.4343 14.9696 13.3973C15.2196 13.3633 15.4601 13.2983 15.6911 13.2023C16.2716 12.9917 16.7881 12.6353 17.1911 12.1673C17.1911 12.1673 17.1911 12.0473 17.2811 11.9873C17.4691 12.1073 17.6646 12.2123 17.8676 12.3023C18.3851 12.5438 18.9296 12.7253 19.4876 12.8423C20.5526 13.0403 21.6431 13.0658 22.7156 12.9173C22.8444 14.0556 22.5342 15.2003 21.8483 16.1178C21.1624 17.0354 20.1523 17.6568 19.0241 17.8553C18.8953 17.8704 18.7776 17.9354 18.6962 18.0364C18.6149 18.1374 18.5764 18.2663 18.5891 18.3953C18.6077 18.5253 18.6759 18.6431 18.7793 18.7242C18.8827 18.8052 19.0133 18.8432 19.1441 18.8303C19.8731 18.7563 20.581 18.5424 21.2291 18.2003C21.7491 18.7583 22.2141 19.3583 22.6241 20.0003C22.8641 20.3603 23.0906 20.7203 23.3156 21.0953C23.5406 21.4703 23.7356 21.8468 23.9306 22.2368C24.1646 22.6848 24.3696 23.1448 24.5456 23.6168C24.8606 24.1583 25.6271 24.2633 25.9421 23.3168C25.8221 22.3268 25.6721 22.5068 25.3721 21.6368C25.2053 21.1655 24.9996 20.7089 24.7571 20.2718C24.5174 19.828 24.2253 19.4145 23.8871 19.0403C23.3651 18.4704 22.7752 17.9666 22.1306 17.5403C22.8272 16.8668 23.362 16.0439 23.6946 15.1338C24.0271 14.2236 24.1489 13.2498 24.0506 12.2858C24.051 11.4974 23.8959 10.7166 23.5944 9.9881C23.2929 9.2596 22.8507 8.59768 22.2932 8.04017C21.7357 7.48266 21.0738 7.0405 20.3453 6.73896C19.6168 6.43742 18.836 6.28242 18.0476 6.28281C16.34 6.21266 14.6739 6.81989 13.412 7.97229C12.15 9.12469 11.3944 10.7289 11.3096 12.4358C11.2644 13.5539 11.5602 14.6592 12.1575 15.6054C12.7549 16.5516 13.6257 17.2938 14.6546 17.7338C13.7786 18.2483 12.9491 18.8408 12.1796 19.5053C11.4948 20.0975 10.8987 20.785 10.4096 21.5468C9.92624 22.2471 9.67397 23.081 9.68806 23.9318C9.68806 24.6383 10.5581 25.0283 10.6781 24.4583C10.7981 23.4233 11.1131 23.3333 11.7431 22.4633C12.2251 21.8133 12.7406 21.1928 13.2896 20.6018ZM18.0476 8.00931C19.1306 7.96102 20.1927 8.31891 21.0257 9.01287C21.8587 9.70682 22.4025 10.6868 22.5506 11.7608C21.6336 11.7245 20.7254 11.5682 19.8491 11.2958C18.9605 11.011 18.1166 10.6019 17.3426 10.0808C16.6965 9.6624 16.111 9.15717 15.6026 8.57931C16.3711 8.2272 17.2026 8.03335 18.0476 8.00931ZM14.6111 9.11931C15.0311 9.96831 15.6176 10.7243 16.3361 11.3408L16.4111 11.4158C16.215 11.503 16.0082 11.5636 15.7961 11.5958C15.5511 11.6108 15.3061 11.6108 15.0611 11.5958L14.3261 11.7008C13.8354 11.8336 13.3331 11.919 12.8261 11.9558C13.0481 10.8219 13.6845 9.8097 14.6111 9.11931Z" fill="#1C1C3A"/>
<path fill-rule="evenodd" clip-rule="evenodd" d="M23.586 26.5152C23.63 26.4456 23.6534 26.365 23.6534 26.2827C23.6534 26.2003 23.63 26.1197 23.586 26.0502C23.226 25.4652 22.386 26.2602 21.441 26.4852C20.595 26.6782 19.739 26.8032 18.873 26.8602C16.6648 27.0531 14.4404 26.8033 12.33 26.1252C11.2637 25.8034 10.2519 25.3231 9.32853 24.7002C8.43943 24.1249 7.636 23.427 6.94203 22.6272C5.70451 21.0942 4.88658 19.2659 4.5684 17.3216C4.25022 15.3773 4.44272 13.3837 5.12703 11.5362C5.71479 9.66023 6.69241 7.9297 7.99578 6.45804C9.29916 4.98637 10.8989 3.80681 12.69 2.99666C13.7912 2.52585 14.9377 2.16899 16.1115 1.93166C17.2384 1.67556 18.398 1.59461 19.5495 1.69166C22.695 2.12366 25.5495 3.76616 27.504 6.26816C29.5056 8.77956 30.5951 11.8962 30.594 15.1077C30.5788 16.3523 30.4228 17.5911 30.129 18.8007C29.8524 20.0034 29.3428 21.1403 28.629 22.1472C27.9475 22.9254 27.2052 23.6482 26.409 24.3087C25.7339 24.6733 25.0911 25.0948 24.4875 25.5687C24.4444 25.6529 24.4256 25.7475 24.4332 25.8419C24.4408 25.9363 24.4745 26.0266 24.5306 26.1029C24.5866 26.1792 24.6628 26.2384 24.7505 26.2738C24.8383 26.3093 24.9342 26.3196 25.0275 26.3037C26.7435 25.4392 28.2733 24.2467 29.5305 22.7937C30.3555 21.6987 30.9405 20.4387 31.2405 19.1007C31.5927 17.8026 31.789 16.4672 31.8255 15.1227C31.9078 11.6036 30.7741 8.16374 28.6155 5.38316C26.4919 2.52381 23.3244 0.619524 19.803 0.085162C18.4666 -0.0691671 17.1143 -0.0134942 15.795 0.250162C14.5094 0.508099 13.253 0.895057 12.045 1.40516C10.0276 2.31483 8.22915 3.64729 6.77138 5.31235C5.31361 6.9774 4.23056 8.9362 3.59553 11.0562C2.87589 13.1599 2.72298 15.4161 3.15219 17.5977C3.5814 19.7792 4.57759 21.8093 6.04053 23.4837C7.72276 25.181 9.77919 26.4607 12.045 27.2202C14.3268 27.8084 16.6909 28.0112 19.0395 27.8202C19.9494 27.7367 20.8518 27.5863 21.7395 27.3702C22.3765 27.1302 22.992 26.8452 23.586 26.5152Z" fill="#1C1C3A"/>
<path fill-rule="evenodd" clip-rule="evenodd" d="M33.0572 31.6338C32.8998 30.8958 32.5594 30.2092 32.0672 29.6373C31.4522 28.9023 30.6407 28.3173 29.9507 27.6423C29.2607 26.9673 28.8407 26.5008 28.2692 25.9608C28.103 25.7994 27.9223 25.6538 27.7292 25.5258C27.6455 25.4365 27.5331 25.3793 27.4116 25.3641C27.2902 25.3488 27.1672 25.3765 27.064 25.4424C26.9608 25.5082 26.8838 25.6081 26.8464 25.7246C26.809 25.8412 26.8136 25.9672 26.8592 26.0808C27.0992 26.2698 27.3142 26.4848 27.5042 26.7258C28.0292 27.2958 28.5242 27.9258 29.0042 28.4958C29.4842 29.0658 30.3392 29.7873 30.8957 30.5223C31.2017 30.9273 31.4027 31.4028 31.4807 31.9023C31.5054 32.3367 31.3945 32.768 31.1634 33.1367C30.9323 33.5054 30.5924 33.7931 30.1907 33.9603C29.826 34.2129 29.3978 34.358 28.9547 34.3792C28.5115 34.4004 28.0714 34.2969 27.6842 34.0803C27.361 33.8304 27.0734 33.5377 26.8292 33.2103C26.4267 32.6152 26.0653 31.9932 25.7477 31.3488C25.2077 30.3288 24.6677 29.3073 24.2477 28.2408C24.0227 27.7308 24.0827 27.8958 23.8727 27.3708C23.6627 26.8458 22.8812 27.3708 23.0462 27.7608C23.2712 28.4658 23.2262 28.4958 23.4812 29.1858C23.8262 30.1173 24.2012 31.0338 24.6062 31.9488C24.8992 32.6728 25.2397 33.3728 25.6277 34.0488C25.9352 34.5528 26.3252 34.9998 26.7827 35.3703C27.4203 35.7817 28.1629 36.0005 28.9217 36.0005C29.6805 36.0005 30.4232 35.7817 31.0607 35.3703C31.741 35.0329 32.299 34.4914 32.6567 33.8215C33.0143 33.1517 33.1553 32.3868 33.0572 31.6338ZM18.4382 20.2428C18.4448 20.1557 18.424 20.0687 18.3789 19.994C18.3337 19.9193 18.2664 19.8605 18.1862 19.8258C18.1329 19.8036 18.0759 19.7919 18.0182 19.7913C17.9322 19.7883 17.8472 19.811 17.774 19.8564C17.7008 19.9018 17.6428 19.9679 17.6072 20.0463C17.5839 20.0983 17.5706 20.1543 17.5682 20.2113C17.4332 20.7513 17.2682 21.2613 17.1782 21.8328C17.1073 22.29 17.1073 22.7555 17.1782 23.2128C17.2532 23.7678 17.3732 24.2943 17.4932 24.8343C17.4932 24.9656 17.5454 25.0915 17.6382 25.1843C17.731 25.2771 17.8569 25.3293 17.9882 25.3293C18.1195 25.3293 18.2454 25.2771 18.3382 25.1843C18.4311 25.0915 18.4832 24.9656 18.4832 24.8343C18.4832 24.2943 18.6782 23.7843 18.7382 23.2443C18.7515 23.0145 18.7515 22.7841 18.7382 22.5543C18.7532 22.3283 18.7532 22.1033 18.7382 21.8793C18.6932 21.2928 18.5432 20.7828 18.4382 20.2428Z" fill="#1C1C3A"/>
</svg>
