<svg width="36" height="36" viewBox="0 0 36 36" fill="none" xmlns="http://www.w3.org/2000/svg">
<g clip-path="url(#clip0_4918_1635)">
<path fill-rule="evenodd" clip-rule="evenodd" d="M21.0337 24.7258L15.6817 28.6993C15.3667 28.9393 14.9017 29.4193 14.4067 29.7643C14.2428 29.9217 14.0322 30.0217 13.8067 30.0493C13.1982 29.9632 12.6373 29.6722 12.2167 29.2243C11.4288 28.4362 10.7026 27.5887 10.0447 26.6893C8.85966 25.1893 7.70466 23.6908 6.59466 22.1908C5.48466 20.6908 4.46616 19.1173 3.49116 17.5138C1.46766 14.2438 1.58766 15.3988 2.36616 14.5588C2.83616 14.0288 3.33616 13.5293 3.86616 13.0603C4.39616 12.5913 4.95116 12.1563 5.53116 11.7553L8.52966 9.37176L9.51966 8.60676C9.75966 8.60676 10.0147 8.87676 10.2847 9.11676C10.6567 9.46576 11.0067 9.83576 11.3347 10.2268L12.8332 12.0268L17.7502 18.6073C17.7925 18.6644 17.8457 18.7126 17.9067 18.7492C17.9677 18.7858 18.0353 18.81 18.1056 18.8204C18.1759 18.8308 18.2477 18.8273 18.3166 18.8101C18.3856 18.7928 18.4505 18.7621 18.5077 18.7198C18.5648 18.6774 18.613 18.6242 18.6496 18.5632C18.6861 18.5022 18.7103 18.4347 18.7208 18.3643C18.7312 18.294 18.7277 18.2223 18.7105 18.1533C18.6932 18.0843 18.6625 18.0194 18.6202 17.9623L13.8817 11.2333L12.4567 9.34326C11.966 8.70057 11.4028 8.1167 10.7782 7.60326C10.3775 7.28566 9.87941 7.11612 9.36816 7.12326C9.09641 7.1721 8.83696 7.27404 8.60466 7.42326C8.25666 7.64526 7.92666 7.89026 7.61466 8.15826L4.61616 10.3783C3.97116 10.8133 3.35616 11.2633 2.75616 11.7433C2.15616 12.2403 1.58666 12.7698 1.04766 13.3318C0.685727 13.6854 0.363791 14.0777 0.0876591 14.5018C0.0298426 14.6342 0 14.7772 0 14.9218C0 15.0663 0.0298426 15.2093 0.0876591 15.3418C0.231659 15.7228 0.411659 16.0878 0.627659 16.4368C1.04766 17.1403 1.60266 17.8303 1.99266 18.4603C2.96766 20.0938 4.00266 21.7123 5.17116 23.2723C6.33966 24.8323 7.57116 26.2723 8.84466 27.7708C9.71703 28.8898 10.7241 29.8969 11.8432 30.7693C12.4192 31.1893 13.1092 31.4293 13.8232 31.4593C14.2347 31.439 14.6311 31.2982 14.9632 31.0543C15.4892 30.6443 15.9887 30.2043 16.4617 29.7343C17.4817 28.8943 18.5017 28.0243 19.4602 27.2008C20.1402 26.6518 20.8302 26.1118 21.5302 25.5808C21.6133 25.5019 21.6654 25.3959 21.6772 25.2819C21.689 25.168 21.6596 25.0536 21.5944 24.9594C21.5292 24.8652 21.4324 24.7974 21.3216 24.7683C21.2108 24.7392 21.0932 24.7507 20.9902 24.8008L21.0337 24.7258Z" fill="#1C1C3A"/>
<path fill-rule="evenodd" clip-rule="evenodd" d="M13.374 16.7624C12.7857 16.1863 12.0164 15.8313 11.1963 15.7575C10.3762 15.6837 9.55577 15.8956 8.87405 16.3574C8.48461 16.6777 8.16526 17.0747 7.93585 17.5238C7.70643 17.9728 7.57188 18.4642 7.54055 18.9674C7.49802 19.4753 7.57644 19.9859 7.76938 20.4576C7.96233 20.9293 8.2643 21.3485 8.65055 21.6809C9.24605 22.1429 9.98105 22.3859 10.7355 22.3709C11.4375 22.3814 12.129 22.1954 12.729 21.8309C12.8382 21.7652 12.9179 21.66 12.9514 21.537C12.9849 21.4141 12.9698 21.283 12.909 21.1709C12.9833 21.1761 13.0579 21.1654 13.1277 21.1395C13.1975 21.1137 13.261 21.0732 13.314 21.0209C13.6341 20.768 13.8937 20.447 14.0741 20.0811C14.2545 19.7153 14.351 19.3138 14.3568 18.906C14.3625 18.4981 14.2773 18.0941 14.1073 17.7233C13.9373 17.3525 13.6868 17.0243 13.374 16.7624ZM12.504 20.2259C12.4166 20.3225 12.3681 20.4481 12.3681 20.5784C12.3681 20.7087 12.4166 20.8344 12.504 20.9309H12.324C11.8523 21.1358 11.3309 21.1983 10.824 21.1109C10.3826 21.0568 9.97395 20.8498 9.66905 20.5259C9.49831 20.3203 9.37816 20.0774 9.31824 19.8169C9.25833 19.5564 9.26032 19.2855 9.32405 19.0259C9.37125 18.508 9.61883 18.029 10.014 17.6909C10.3557 17.4414 10.7723 17.3158 11.195 17.3349C11.6177 17.354 12.0212 17.5166 12.339 17.7959C12.5412 17.9215 12.7106 18.0933 12.8332 18.2972C12.9559 18.5011 13.0282 18.7312 13.0443 18.9687C13.0605 19.2061 13.0199 19.4439 12.9259 19.6625C12.832 19.8811 12.6874 20.0742 12.504 20.2259ZM26.0265 9.61044C25.8814 8.82526 25.6916 8.049 25.458 7.28544C25.2477 6.64641 24.9765 6.02907 24.648 5.44194C24.3733 4.94701 23.9476 4.55283 23.433 4.31694C23.0781 4.19047 22.6983 4.14937 22.3245 4.19694C21.6785 4.31694 21.0435 4.48194 20.4195 4.69194C20.3556 4.70484 20.2949 4.73049 20.2411 4.76735C20.1872 4.80421 20.1414 4.85153 20.1062 4.9065C20.0711 4.96146 20.0474 5.02293 20.0365 5.08726C20.0256 5.15158 20.0278 5.21744 20.0429 5.28091C20.058 5.34437 20.0857 5.40415 20.1244 5.45667C20.1631 5.50918 20.212 5.55337 20.2682 5.5866C20.3243 5.61982 20.3866 5.6414 20.4512 5.65005C20.5159 5.6587 20.5816 5.65424 20.6445 5.63694C21.1395 5.53794 21.6395 5.47294 22.1445 5.44194C22.3776 5.42497 22.6109 5.47163 22.8195 5.57694C23.0295 5.69694 23.1195 5.96694 23.2395 6.22194C23.4545 6.73994 23.6145 7.27494 23.7195 7.82694C24.0045 8.66694 24.1995 9.52194 24.4095 10.3754C24.6195 11.2289 24.9045 12.1304 25.1445 13.0004C25.3845 13.8689 25.5195 14.2289 25.5195 14.2439C25.638 14.8739 26.448 14.3639 26.508 13.4489C26.208 11.9039 26.3265 11.1539 26.0265 9.61044ZM35.9535 24.7844C35.8507 23.6935 35.5931 22.6228 35.1885 21.6044C34.7882 20.574 34.2206 19.6166 33.5085 18.7709C31.7941 16.8095 29.4999 15.4446 26.958 14.8739C26.418 14.6189 26.013 15.0089 26.028 15.6539C25.7957 16.4931 25.4366 17.2918 24.963 18.0224C24.3894 18.4831 23.7015 18.7794 22.9726 18.8797C22.2438 18.9801 21.5014 18.8808 20.8245 18.5924C20.4057 18.5048 19.9699 18.552 19.5795 18.7274C19.0954 18.8789 18.6745 19.1856 18.382 19.6002C18.0894 20.0147 17.9415 20.514 17.961 21.0209C17.9589 21.489 18.0664 21.951 18.2747 22.37C18.4831 22.7891 18.7866 23.1536 19.161 23.4344C19.356 23.5394 19.761 23.7344 20.271 23.9444C21.426 24.4244 23.2695 25.0544 23.973 25.4444C23.853 25.7444 24.288 26.5394 24.363 26.7644C24.7188 27.7632 25.2638 28.684 25.968 29.4764C26.2346 29.7843 26.5674 30.0279 26.9415 30.189C27.3155 30.35 27.7212 30.4244 28.128 30.4064C28.2713 30.4064 28.4086 30.3495 28.5099 30.2483C28.6112 30.147 28.668 30.0097 28.668 29.8664C28.668 29.7232 28.6112 29.5859 28.5099 29.4846C28.4086 29.3833 28.2713 29.3264 28.128 29.3264C27.886 29.3112 27.6503 29.2429 27.4377 29.1262C27.2251 29.0095 27.0409 28.8474 26.898 28.6514C26.3632 27.9575 25.9753 27.1618 25.758 26.3129C25.683 26.0429 25.653 25.1879 25.533 24.8129C25.4777 24.6054 25.35 24.4245 25.173 24.3029C24.8186 24.0759 24.4475 23.8758 24.063 23.7044C22.758 23.1044 20.631 22.2044 20.136 21.9044C20.0283 21.7907 19.9448 21.6563 19.8907 21.5093C19.8365 21.3623 19.8128 21.2059 19.821 21.0494C19.8076 20.9181 19.8369 20.7859 19.9044 20.6725C19.9719 20.559 20.0742 20.4703 20.196 20.4194C20.3697 20.3886 20.5474 20.3886 20.721 20.4194C21.453 20.4934 22.1875 20.5234 22.9245 20.5094C23.5852 20.4512 24.2248 20.2477 24.7977 19.9135C25.3705 19.5792 25.8623 19.1225 26.238 18.5759C26.7106 17.8045 26.9598 16.9171 26.958 16.0124C29.0154 16.7686 30.8111 18.1018 32.13 19.8524C32.6855 20.5981 33.1395 21.4142 33.48 22.2794C33.831 23.1539 34.083 24.0644 34.23 24.9944C34.575 27.2504 34.4715 29.5544 33.93 31.7714C33.8927 31.9106 33.9109 32.0589 33.9809 32.1848C34.0509 32.3108 34.1671 32.4046 34.305 32.4464C34.4423 32.4833 34.5885 32.4647 34.7121 32.3945C34.8356 32.3243 34.9265 32.2082 34.965 32.0714C35.799 29.7374 36.1335 27.2564 35.9535 24.7844Z" fill="#1C1C3A"/>
<path fill-rule="evenodd" clip-rule="evenodd" d="M22.278 15.0995C21.843 13.5995 21.453 12.0995 21.033 10.5995C20.763 9.596 20.448 8.606 20.163 7.6025C19.9292 6.55509 19.5505 5.54537 19.038 4.6025C18.8688 4.31198 18.6347 4.06461 18.3538 3.87983C18.073 3.69504 17.7532 3.57787 17.4195 3.5375C17.18 3.52314 16.9413 3.57504 16.7295 3.6875C16.3465 3.9175 15.9765 4.1675 15.6195 4.4375L11.9625 6.7625C11.8951 6.78127 11.8326 6.81454 11.7795 6.85997C11.7263 6.9054 11.6837 6.9619 11.6547 7.02552C11.6256 7.08913 11.6108 7.15832 11.6113 7.22825C11.6118 7.29818 11.6276 7.36716 11.6575 7.43035C11.6875 7.49355 11.7309 7.54945 11.7847 7.59413C11.8384 7.63881 11.9014 7.67119 11.969 7.68902C12.0366 7.70684 12.1073 7.70968 12.1761 7.69732C12.245 7.68497 12.3103 7.65773 12.3675 7.6175L16.326 5.7275C17.001 5.3825 17.196 4.3925 17.826 6.1775C18.096 6.8975 18.261 7.6775 18.381 8.1125C18.9645 9.896 19.5345 11.6645 20.1645 13.4345C20.7945 15.2045 21.1995 15.8495 21.8745 17.438C22.173 18.308 22.953 18.518 22.953 17.873C22.638 16.823 22.593 16.148 22.278 15.098" fill="#1C1C3A"/>
</g>
<defs>
<clipPath id="clip0_4918_1635">
<rect width="36" height="36" fill="white"/>
</clipPath>
</defs>
</svg>
