<svg width="31" height="27" viewBox="0 0 31 27" fill="none" xmlns="http://www.w3.org/2000/svg">
<path d="M14.5542 25.4415C14.7502 25.4415 14.9512 25.3975 15.1572 25.3095C15.3632 25.2215 15.5297 25.114 15.6567 24.987L27.3507 13.2915C27.7277 12.9145 28.0187 12.5295 28.2237 12.1365C28.4277 11.7415 28.5297 11.3085 28.5297 10.8375C28.5297 10.3605 28.4277 9.8975 28.2237 9.4485C28.0187 8.9985 27.7277 8.5885 27.3507 8.2185L21.7257 2.5935C21.3547 2.2165 20.9732 1.94 20.5812 1.764C20.1902 1.588 19.7562 1.5 19.2792 1.5C18.8082 1.5 18.3707 1.588 17.9667 1.764C17.5627 1.94 17.1822 2.216 16.8252 2.592L15.5172 3.9L18.2922 6.6825C18.5902 6.9755 18.8127 7.3085 18.9597 7.6815C19.1057 8.0545 19.1787 8.433 19.1787 8.817C19.1787 9.598 18.9232 10.244 18.4122 10.755C17.9012 11.266 17.2557 11.521 16.4757 11.52C16.0907 11.52 15.7152 11.4615 15.3492 11.3445C14.9832 11.2275 14.6537 11.0225 14.3607 10.7295L11.4912 7.8705L5.01419 14.346C4.86319 14.498 4.74969 14.6705 4.67369 14.8635C4.59769 15.0565 4.55969 15.2515 4.55969 15.4485C4.55969 15.8025 4.67319 16.094 4.90019 16.323C5.12619 16.553 5.41619 16.668 5.77019 16.668C5.96619 16.668 6.16719 16.624 6.37319 16.536C6.57919 16.447 6.74569 16.339 6.87269 16.212L11.6262 11.4585L12.6882 12.5205L7.94219 17.2755C7.79019 17.4265 7.67619 17.5985 7.60019 17.7915C7.52519 17.9855 7.48769 18.1805 7.48769 18.3765C7.48769 18.7115 7.60569 18.997 7.84169 19.233C8.07769 19.469 8.36319 19.5875 8.69819 19.5885C8.89419 19.5885 9.09519 19.544 9.30119 19.455C9.50719 19.366 9.67369 19.2585 9.80069 19.1325L14.9007 14.0415L15.9627 15.102L10.8702 20.202C10.7372 20.329 10.6282 20.4955 10.5432 20.7015C10.4572 20.9075 10.4142 21.1085 10.4142 21.3045C10.4142 21.6385 10.5327 21.9235 10.7697 22.1595C11.0057 22.3975 11.2912 22.5165 11.6262 22.5165C11.8222 22.5165 12.0172 22.4785 12.2112 22.4025C12.4052 22.3265 12.5772 22.2125 12.7272 22.0605L17.8272 16.968L18.8892 18.03L13.7892 23.13C13.6382 23.282 13.5247 23.4645 13.4487 23.6775C13.3727 23.8905 13.3347 24.085 13.3347 24.261C13.3347 24.615 13.4592 24.9005 13.7082 25.1175C13.9572 25.3345 14.2392 25.443 14.5542 25.443M14.5452 26.943C13.7742 26.943 13.1142 26.661 12.5652 26.097C12.0162 25.532 11.7752 24.835 11.8422 24.006C10.9922 24.016 10.2847 23.7625 9.71969 23.2455C9.15469 22.7275 8.88619 22.0055 8.91419 21.0795C7.98819 21.0895 7.25819 20.8245 6.72419 20.2845C6.19019 19.7445 5.94719 19.0335 5.99519 18.1515C5.16119 18.1615 4.46319 17.9265 3.90119 17.4465C3.34019 16.9685 3.05969 16.3025 3.05969 15.4485C3.05969 15.0635 3.13419 14.6785 3.28319 14.2935C3.43219 13.9075 3.65219 13.5685 3.94319 13.2765L11.4912 5.7375L15.3642 9.6105C15.4912 9.7435 15.6482 9.853 15.8352 9.939C16.0222 10.025 16.2327 10.0675 16.4667 10.0665C16.7877 10.0665 17.0712 9.9545 17.3172 9.7305C17.5632 9.5065 17.6867 9.2145 17.6877 8.8545C17.6877 8.6205 17.6447 8.4105 17.5587 8.2245C17.4727 8.0375 17.3637 7.8805 17.2317 7.7535L12.0717 2.5935C11.6997 2.2165 11.3132 1.94 10.9122 1.764C10.5112 1.588 10.0722 1.5 9.59519 1.5C9.12419 1.5 8.69619 1.588 8.31119 1.764C7.92719 1.94 7.54669 2.2165 7.16969 2.5935L2.60369 7.1685C2.28169 7.4885 2.02169 7.871 1.82369 8.316C1.62569 8.76 1.52069 9.2185 1.50869 9.6915C1.49869 10.0305 1.52769 10.356 1.59569 10.668C1.66369 10.98 1.77369 11.274 1.92569 11.55L0.788686 12.687C0.536686 12.285 0.339686 11.822 0.197686 11.298C0.0556863 10.774 -0.00981373 10.239 0.00118627 9.693C0.0131863 9.011 0.149686 8.3585 0.410686 7.7355C0.671686 7.1125 1.04569 6.557 1.53269 6.069L6.07019 1.5315C6.59319 1.0135 7.14669 0.6285 7.73069 0.3765C8.31469 0.1255 8.94619 0 9.62519 0C10.3042 0 10.9302 0.126 11.5032 0.378C12.0772 0.629 12.6232 1.0135 13.1412 1.5315L14.4462 2.838L15.7542 1.5315C16.2772 1.0135 16.8257 0.6285 17.3997 0.3765C17.9737 0.1255 18.6002 0 19.2792 0C19.9582 0 20.5897 0.126 21.1737 0.378C21.7567 0.629 22.3067 1.0135 22.8237 1.5315L28.4127 7.119C28.9297 7.636 29.3287 8.2165 29.6097 8.8605C29.8907 9.5045 30.0307 10.166 30.0297 10.845C30.0297 11.525 29.8897 12.1515 29.6097 12.7245C29.3297 13.2975 28.9307 13.8435 28.4127 14.3625L16.7172 26.0475C16.4062 26.3595 16.0672 26.5865 15.7002 26.7285C15.3342 26.8705 14.9492 26.9415 14.5452 26.9415" fill="#1C1C3A"/>
</svg>
