<svg width="30" height="30" viewBox="0 0 30 30" fill="none" xmlns="http://www.w3.org/2000/svg">
<path d="M11.2487 19.5004L22.4987 8.25042M11.2487 20.2504V23.5909C11.2487 27.1519 11.2487 28.9309 12.3137 29.2159C13.3787 29.5009 14.5007 28.0189 16.7447 25.0564L17.9987 23.2504M9.01069 8.51892L19.9922 3.32892C24.5552 1.17192 26.8367 0.0934249 28.2917 1.17492C29.7467 2.25642 29.3312 4.72243 28.4987 9.65293L27.0677 18.1459C26.5232 21.3694 26.2517 22.9804 25.0502 23.6839C23.8487 24.3874 22.2872 23.8474 19.1657 22.7674L9.61819 19.4644C3.78019 17.4454 0.861186 16.4359 0.753186 14.4544C0.642186 12.4744 3.43219 11.1544 9.01069 8.51892Z" stroke="#1C1C3A" stroke-width="1.5" stroke-linecap="round" stroke-linejoin="round"/>
</svg>
