<svg width="29" height="29" viewBox="0 0 29 29" fill="none" xmlns="http://www.w3.org/2000/svg">
<path d="M4.5 0H13.5C14.6935 0 15.8381 0.474106 16.682 1.31802C17.5259 2.16193 18 3.30653 18 4.5V10.5H16.5V4.5C16.5 3.70435 16.1839 2.94129 15.6213 2.37868C15.0587 1.81607 14.2956 1.5 13.5 1.5H4.5C3.70435 1.5 2.94129 1.81607 2.37868 2.37868C1.81607 2.94129 1.5 3.70435 1.5 4.5V24C1.5 24.7956 1.81607 25.5587 2.37868 26.1213C2.94129 26.6839 3.70435 27 4.5 27H13.5C14.2956 27 15.0587 26.6839 15.6213 26.1213C16.1839 25.5587 16.5 24.7956 16.5 24V18H18V24C18 25.1935 17.5259 26.3381 16.682 27.182C15.8381 28.0259 14.6935 28.5 13.5 28.5H4.5C3.30653 28.5 2.16193 28.0259 1.31802 27.182C0.474106 26.3381 0 25.1935 0 24V4.5C0 3.30653 0.474106 2.16193 1.31802 1.31802C2.16193 0.474106 3.30653 0 4.5 0ZM9 13.5H25.875L21 8.625L21.99 7.5L28.74 14.25L21.99 21L21 19.875L25.875 15H9V13.5Z" fill="#1C1C3A"/>
</svg>
