<svg width="30" height="24" viewBox="0 0 30 24" fill="none" xmlns="http://www.w3.org/2000/svg">
<path d="M2.53312 7.68C2.40853 7.54632 2.25754 7.43996 2.08971 7.36766C1.92188 7.29537 1.74086 7.2587 1.55812 7.26C0.943125 7.26 0.478125 7.545 0.178125 8.13C-0.121875 8.715 -0.0468753 9.27 0.433125 9.795C2.20312 11.385 3.32812 12.51 3.80813 13.17C4.42312 14.01 4.72312 15.24 4.72312 16.83C4.72312 18.795 5.47312 20.25 6.97312 21.255C7.81312 21.915 8.72812 22.41 9.74813 22.74V16.905C9.74813 15.495 9.25312 14.325 8.30812 13.38M21.6881 13.455C20.7581 14.385 20.2481 15.54 20.2481 16.905V22.8C21.6881 22.29 22.8881 21.495 23.8781 20.445C24.8531 19.395 25.3481 18.24 25.3481 16.83C25.3481 15.135 25.6331 13.92 26.2031 13.17C26.3381 12.93 26.5931 12.63 26.9981 12.255C27.3431 11.88 27.7031 11.52 28.0631 11.19C28.4081 10.875 28.7531 10.545 29.0831 10.215L29.5781 9.795C29.7122 9.66757 29.8187 9.51393 29.891 9.34363C29.9632 9.17332 29.9997 8.98999 29.9981 8.805C29.9981 8.385 29.8631 8.01 29.5781 7.71C29.2931 7.41 28.9481 7.26 28.4981 7.26C28.0481 7.26 27.7481 7.395 27.4631 7.68M14.9981 24C16.0331 24 17.0381 23.865 17.9981 23.58V18.225C17.9981 17.34 17.7281 16.65 17.1131 15.99C16.4981 15.33 15.7931 15 14.9981 15C14.2031 15 13.4981 15.3 12.9281 15.915C12.3281 16.5 11.9981 17.19 11.9981 18.09V23.58C12.9581 23.865 13.9631 24 14.9981 24ZM10.4981 6.75C10.4981 7.995 9.49312 9 8.24813 9C7.00312 9 5.99813 7.995 5.99813 6.75C5.99813 5.505 7.00312 4.5 8.24813 4.5C9.49312 4.5 10.4981 5.505 10.4981 6.75ZM23.9981 6.75C23.9981 7.995 22.9931 9 21.7481 9C20.5031 9 19.4981 7.995 19.4981 6.75C19.4981 5.505 20.5031 4.5 21.7481 4.5C22.9931 4.5 23.9981 5.505 23.9981 6.75ZM17.2481 2.25C17.2481 3.495 16.2431 4.5 14.9981 4.5C13.7531 4.5 12.7481 3.495 12.7481 2.25C12.7481 1.005 13.7531 0 14.9981 0C16.2431 0 17.2481 1.005 17.2481 2.25ZM17.2481 10.5C17.2481 11.745 16.2431 12.75 14.9981 12.75C13.7531 12.75 12.7481 11.745 12.7481 10.5C12.7481 9.255 13.7531 8.25 14.9981 8.25C16.2431 8.25 17.2481 9.255 17.2481 10.5Z" fill="#1C1C3A"/>
</svg>
