<svg width="23" height="26" viewBox="0 0 23 26" fill="none" xmlns="http://www.w3.org/2000/svg">
<path d="M13.413 22.5H11.25C8.118 22.5 5.46 21.4085 3.276 19.2255C1.092 17.0425 0 14.386 0 11.256C0 8.126 1.0915 5.4675 3.2745 3.2805C5.4575 1.0935 8.115 0 11.247 0C12.813 0 14.278 0.293 15.642 0.879C17.006 1.464 18.1975 2.266 19.2165 3.285C20.2355 4.304 21.0375 5.4935 21.6225 6.8535C22.2075 8.2135 22.5 9.679 22.5 11.25C22.5 14.12 21.763 16.752 20.289 19.146C18.815 21.54 16.9385 23.53 14.6595 25.116C14.5255 25.193 14.3905 25.2355 14.2545 25.2435C14.1205 25.2505 13.992 25.2205 13.869 25.1535C13.746 25.0865 13.648 25.001 13.575 24.897C13.502 24.793 13.4625 24.6615 13.4565 24.5025L13.413 22.5ZM15 23.025C16.775 21.525 18.219 19.769 19.332 17.757C20.445 15.745 21.001 13.576 21 11.25C21 8.525 20.056 6.219 18.168 4.332C16.28 2.445 13.974 1.501 11.25 1.5C8.526 1.499 6.22 2.443 4.332 4.332C2.444 6.221 1.5 8.527 1.5 11.25C1.5 13.973 2.444 16.2795 4.332 18.1695C6.22 20.0595 8.526 21.003 11.25 21H15V23.025ZM12.084 18.5325C12.297 18.3155 12.4035 18.054 12.4035 17.748C12.4035 17.442 12.2955 17.182 12.0795 16.968C11.8635 16.754 11.602 16.647 11.295 16.647C10.988 16.647 10.728 16.7555 10.515 16.9725C10.301 17.1885 10.194 17.45 10.194 17.757C10.194 18.063 10.302 18.323 10.518 18.537C10.735 18.75 10.997 18.8565 11.304 18.8565C11.61 18.8565 11.87 18.7485 12.084 18.5325ZM8.1885 7.803C8.3625 7.87 8.536 7.8655 8.709 7.7895C8.882 7.7135 9.0235 7.591 9.1335 7.422C9.3385 7.084 9.6295 6.814 10.0065 6.612C10.3835 6.412 10.8175 6.312 11.3085 6.312C12.0445 6.312 12.643 6.5045 13.104 6.8895C13.565 7.2745 13.795 7.7955 13.794 8.4525C13.794 8.8585 13.6955 9.2385 13.4985 9.5925C13.3015 9.9455 12.9655 10.3595 12.4905 10.8345C11.8465 11.4615 11.384 11.9995 11.103 12.4485C10.822 12.8975 10.682 13.3335 10.683 13.7565C10.683 13.9535 10.747 14.1215 10.875 14.2605C11.003 14.3995 11.158 14.4695 11.34 14.4705C11.522 14.4715 11.6745 14.4015 11.7975 14.2605C11.9205 14.1195 11.9935 13.949 12.0165 13.749C12.0655 13.439 12.233 13.0945 12.519 12.7155C12.805 12.3365 13.153 11.9425 13.563 11.5335C14.127 10.9695 14.5305 10.438 14.7735 9.939C15.0165 9.439 15.138 8.9395 15.138 8.4405C15.138 7.4115 14.783 6.584 14.073 5.958C13.363 5.332 12.4605 5.019 11.3655 5.019C10.6295 5.019 9.9515 5.1985 9.3315 5.5575C8.7115 5.9165 8.2455 6.3445 7.9335 6.8415C7.8235 7.0445 7.791 7.2385 7.836 7.4235C7.881 7.6085 7.9985 7.735 8.1885 7.803Z" fill="#1C1C3A"/>
</svg>
