<svg width="29" height="29" viewBox="0 0 29 29" fill="none" xmlns="http://www.w3.org/2000/svg">
<path d="M14.25 27.75C16.92 27.75 19.5301 26.9582 21.7502 25.4748C23.9703 23.9914 25.7006 21.883 26.7224 19.4162C27.7442 16.9494 28.0115 14.235 27.4906 11.6163C26.9697 8.99754 25.6839 6.59207 23.7959 4.70406C21.9079 2.81606 19.5025 1.53031 16.8837 1.0094C14.265 0.488504 11.5506 0.755849 9.08377 1.77763C6.61697 2.79942 4.50856 4.52974 3.02516 6.74981C1.54176 8.96987 0.75 11.58 0.75 14.25C0.75 16.41 1.257 18.45 2.16 20.2605C2.8395 21.627 1.8945 23.4705 1.5345 24.816C1.45474 25.1136 1.45473 25.4269 1.53446 25.7245C1.61419 26.0221 1.77085 26.2935 1.9887 26.5113C2.20655 26.7292 2.47791 26.8858 2.7755 26.9655C3.07308 27.0453 3.38642 27.0453 3.684 26.9655C5.0295 26.6055 6.873 25.6605 8.2395 26.3415C10.1073 27.2689 12.1646 27.751 14.25 27.75Z" stroke="#1C1C3A" stroke-width="1.5" stroke-linecap="round" stroke-linejoin="round"/>
</svg>
